<svg width="330" height="278" viewBox="0 0 330 278" fill="none" xmlns="http://www.w3.org/2000/svg">
<mask id="mask0_1194_804" style="mask-type:alpha" maskUnits="userSpaceOnUse" x="0" y="0" width="330" height="278">
<rect width="330" height="278" fill="#C4C4C4"/>
</mask>
<g mask="url(#mask0_1194_804)">
<path fill-rule="evenodd" clip-rule="evenodd" d="M164.999 83.7103C188.118 83.7103 206.859 64.9711 206.859 41.8551C206.859 18.7392 188.118 0 164.999 0C141.881 0 123.139 18.7392 123.139 41.8551C123.139 64.9711 141.881 83.7103 164.999 83.7103ZM165 326.469C149.924 326.469 144.907 323.121 139.773 286.477C136.165 260.731 133.133 239.917 130.364 220.903L130.364 220.903L130.363 220.897C128.722 209.633 127.173 199 125.651 188.347C121.465 159.049 118.15 153.463 86.303 137.284C54.4558 121.105 10.955 88.732 1.67689 73.2915C-4.11457 60.2705 5.09463 54.4108 29.3161 69.0998C62.7468 89.6486 116.422 108.822 165 108.822V326.469ZM165 326.469C180.076 326.469 185.093 323.121 190.227 286.477C193.835 260.731 196.866 239.917 199.636 220.903L199.636 220.903L199.637 220.897C201.278 209.633 202.827 199 204.349 188.347C208.535 159.049 211.85 153.463 243.697 137.284C275.544 121.105 319.045 88.732 328.323 73.2915C334.115 60.2705 324.905 54.4108 300.684 69.0998C267.253 89.6486 213.578 108.822 165 108.822V326.469Z" fill="#FFBE00"/>
</g>
</svg>
