<svg width="90" height="90" viewBox="0 0 90 90" fill="none" xmlns="http://www.w3.org/2000/svg">
<circle cx="45" cy="45" r="45" fill="url(#paint0_radial_1194_33)"/>
<circle cx="45" cy="45" r="45" fill="url(#paint1_radial_1194_33)"/>
<path fill-rule="evenodd" clip-rule="evenodd" d="M45.75 32.2308C49.6801 32.2308 52.8662 29.0451 52.8662 25.1154C52.8662 21.1857 49.6801 18 45.75 18C41.8198 18 38.6338 21.1857 38.6338 25.1154C38.6338 29.0451 41.8198 32.2308 45.75 32.2308ZM45.7501 73.5001C43.1872 73.5001 42.3343 72.9308 41.4615 66.7013C40.8483 62.3252 40.3329 58.7871 39.8621 55.555L39.862 55.5537L39.8618 55.5525C39.5829 53.6376 39.3196 51.8301 39.0608 50.0193C38.3492 45.0385 37.7856 44.0889 32.3716 41.3385C26.9576 38.5881 19.5624 33.0847 17.9851 30.4598C17.0006 28.2462 18.5662 27.2501 22.6838 29.7472C28.3671 33.2405 37.4918 36.5001 45.7501 36.5001V73.5001ZM45.7501 73.5001C48.313 73.5001 49.1659 72.9308 50.0387 66.7013C50.652 62.3247 51.1674 58.7864 51.6382 55.554L51.6383 55.5535L51.6388 55.55C51.9176 53.6361 52.1807 51.8293 52.4393 50.0193C53.151 45.0385 53.7146 44.0889 59.1286 41.3385C64.5426 38.5881 71.9378 33.0847 73.515 30.4598C74.4996 28.2462 72.934 27.2501 68.8164 29.7472C63.1331 33.2405 54.0084 36.5001 45.7501 36.5001V73.5001Z" fill="white"/>
<defs>
<radialGradient id="paint0_radial_1194_33" cx="0" cy="0" r="1" gradientUnits="userSpaceOnUse" gradientTransform="translate(56.4516 90) rotate(-109.2) scale(57.8059)">
<stop stop-color="#D700FF"/>
<stop offset="1" stop-color="#FFBE00"/>
</radialGradient>
<radialGradient id="paint1_radial_1194_33" cx="0" cy="0" r="1" gradientUnits="userSpaceOnUse" gradientTransform="translate(9.37031 83.5523) rotate(-108.561) scale(75.8519)">
<stop stop-color="#00E4FF"/>
<stop offset="1" stop-color="#FFBE00" stop-opacity="0.01"/>
</radialGradient>
</defs>
</svg>
